<?xml version="1.0" standalone="no"?>
<!DOCTYPE svg PUBLIC "-//W3C//DTD SVG 20010904//EN"
 "http://www.w3.org/TR/2001/REC-SVG-20010904/DTD/svg10.dtd">
<svg version="1.0" xmlns="http://www.w3.org/2000/svg"
 width="700.000000pt" height="700.000000pt" viewBox="0 0 700.000000 700.000000"
 preserveAspectRatio="xMidYMid meet">
<metadata>
Created by potrace 1.11, written by Peter Selinger 2001-2013
</metadata>
<g transform="translate(0.000000,700.000000) scale(0.100000,-0.100000)"
fill="#000000" stroke="none">
<path d="M3260 5792 l0 -258 -69 -12 c-151 -26 -325 -96 -456 -185 -87 -59
-235 -207 -295 -293 -119 -172 -170 -331 -178 -552 -7 -209 24 -365 105 -525
l34 -68 90 83 c49 46 115 105 145 132 l55 49 532 -531 532 -532 137 137 138
138 -98 58 c-53 32 -157 88 -229 125 l-133 67 0 759 0 759 73 -7 c261 -24 474
-91 636 -200 29 -20 55 -36 57 -36 2 0 4 111 4 246 l0 245 -72 34 c-40 18 -98
40 -128 49 -84 24 -273 54 -385 61 -55 3 -119 8 -142 11 l-43 5 0 250 0 249
-155 0 -155 0 0 -258z m0 -1337 l0 -665 -82 51 c-319 196 -428 362 -430 654
-2 195 46 320 171 445 42 41 100 89 130 104 55 30 176 75 199 76 9 0 12 -140
12 -665z"/>
<path d="M6247 5196 l-197 -191 0 -797 c0 -439 -3 -798 -7 -798 -5 0 -143 135
-308 300 l-300 300 -502 -503 -502 -502 44 -73 c140 -237 159 -573 48 -842
-132 -319 -429 -539 -853 -634 l-105 -23 -3 -312 -2 -311 -145 0 -145 0 0 298
0 298 -167 12 c-322 23 -557 84 -754 196 l-74 42 -3 246 -2 247 74 -53 c205
-147 554 -266 828 -283 l98 -6 0 509 0 508 -290 290 -289 290 -33 -30 c-18
-17 -469 -430 -1003 -919 -533 -488 -983 -900 -999 -915 l-28 -28 32 -47 c166
-241 446 -531 705 -731 927 -713 2130 -919 3235 -554 693 229 1316 687 1738
1278 360 502 573 1064 643 1697 16 144 16 537 0 690 -34 322 -111 639 -228
940 -65 167 -221 474 -297 586 -9 14 -41 -12 -209 -175z"/>
<path d="M3948 2527 c-70 -67 -142 -136 -160 -154 l-33 -32 -95 92 -95 92 -3
-344 c-1 -189 -1 -346 1 -347 2 -2 32 5 68 15 276 80 427 223 475 452 19 90
14 220 -13 296 l-18 52 -127 -122z"/>
</g>
</svg>
