<svg xmlns="http://www.w3.org/2000/svg" width="256" height="256" viewBox="0 0 67.733 67.733"><path d="M62.342 15.537l-3.834 3.816v15.42l-5.91-5.911-16.264 16.237L26.01 34.773 6.035 53.093a33.866 33.866 0 0027.831 14.64 33.866 33.866 0 0033.866-33.867 33.866 33.866 0 00-5.39-18.329z" fill="#076469"/><path d="M33.866 0A33.866 33.866 0 000 33.866a33.866 33.866 0 003.357 14.618l22.652-21.016 10.325 10.326 12.597-12.598-5.91-5.91h15.487v.067l3.834-3.815A33.866 33.866 0 0033.866 0z" fill="#4caf50" fill-rule="evenodd"/><path d="M31.583 9.193v5.002c-2.816.389-5.141 1.565-6.975 3.529-1.834 1.945-2.751 4.261-2.751 6.947 0 2.26.602 4.225 1.806 5.892.37.506.922 1.032 1.562 1.568l.967-.88 3.916 3.967c.489.254.936.504 1.475.764v.731l2.89 2.928v-2.214c1.414.776 2.537 1.602 3.392 2.471l3.224-3.208c-1.514-1.316-3.719-2.664-6.616-4.043V17.974c3.13.111 5.641.908 7.53 2.39V15.64c-1.389-.926-3.899-1.445-7.53-1.556V9.193zm0 8.948v12.95c-1.89-1.038-3.205-2.066-3.946-3.085-.741-1.019-1.112-2.325-1.112-3.918 0-1.52.454-2.807 1.362-3.863.907-1.074 2.14-1.769 3.696-2.084z" fill="#076469"/><path d="M41.089 36.69l-3.224 3.208c1.306 1.329 1.971 2.763 1.971 4.309 0 3.075-1.788 5.002-5.364 5.78V39.64l-2.89-2.927v13.496c-1.611 0-3.353-.315-5.224-.944-1.852-.649-3.316-1.446-4.39-2.39v4.835c2.463 1.593 5.669 2.39 9.615 2.39v5.808h2.89v-6.03c3.149-.5 5.604-1.64 7.364-3.419 1.778-1.797 2.667-4.01 2.667-6.641 0-2.186-.713-4.131-2.14-5.836a10.636 10.636 0 00-1.275-1.293z" fill="#4caf50"/><path d="M43.02 19.285l5.911 5.911-12.596 12.598-10.326-10.326-22.656 21.02a33.866 33.866 0 002.68 4.606l19.976-18.32 10.325 10.325 16.263-16.237 5.911 5.911V19.285z" fill="#fff"/></svg>